<svg xmlns="http://www.w3.org/2000/svg" id="canvas" viewBox="245.050 128.001 776.844 276.553"><path d="M 273.06,187.08 C 272.40 188.17, 272.02 189.55, 271.60 192.71 C 271.18 195.87, 271.30 197.93, 270.98 202.88 C 270.65 207.83, 270.54 211.05, 269.96 217.45 C 269.38 223.85, 269.05 227.30, 268.07 234.86 C 267.09 242.42, 266.42 246.93, 265.05 255.25 C 263.69 263.57, 262.79 267.96, 261.26 276.47 C 259.72 284.98, 258.90 289.66, 257.38 297.78 C 255.86 305.90, 255.07 310.08, 253.65 317.06 C 252.24 324.04, 251.39 327.49, 250.30 332.68 C 249.22 337.88, 248.62 340.25, 248.23 343.04 C 247.84 345.82, 248.18 345.86, 248.36 346.62 C 248.55 347.37, 248.67 347.41, 249.17 346.80 C 249.67 346.18, 250.16 346.28, 250.84 343.54 C 251.52 340.81, 251.65 338.35, 252.57 333.12 C 253.50 327.90, 254.18 324.42, 255.47 317.41 C 256.76 310.40, 257.54 306.21, 259.02 298.08 C 260.50 289.95, 261.32 285.27, 262.87 276.76 C 264.41 268.25, 265.32 263.86, 266.75 255.54 C 268.18 247.21, 268.89 242.70, 270.01 235.13 C 271.13 227.56, 271.54 224.10, 272.35 217.71 C 273.15 211.32, 273.46 208.09, 274.03 203.16 C 274.61 198.23, 275.05 196.23, 275.23 193.05 C 275.41 189.88, 275.36 188.46, 274.93 187.27 C 274.50 186.07, 273.73 185.99, 273.06 187.08" style="stroke: white; fill: white;"/><path d="M 258.03,186.06 C 257.62 186.71, 257.39 187.12, 257.56 188.98 C 257.73 190.85, 258.01 191.89, 258.87 195.38 C 259.72 198.88, 260.53 201.19, 261.85 206.47 C 263.18 211.75, 263.76 215.05, 265.50 221.79 C 267.25 228.53, 268.29 232.58, 270.59 240.15 C 272.88 247.72, 274.18 251.88, 276.99 259.64 C 279.80 267.40, 281.38 271.66, 284.62 278.94 C 287.87 286.22, 289.74 289.95, 293.21 296.04 C 296.67 302.14, 298.62 304.89, 301.95 309.41 C 305.28 313.94, 306.81 316.08, 309.86 318.68 C 312.91 321.29, 314.46 322.21, 317.20 322.44 C 319.94 322.68, 321.57 322.21, 323.56 319.85 C 325.54 317.49, 325.94 315.53, 327.12 310.66 C 328.30 305.79, 328.61 302.54, 329.45 295.50 C 330.29 288.46, 330.60 284.22, 331.32 275.45 C 332.05 266.69, 332.47 261.52, 333.09 251.68 C 333.71 241.85, 333.92 236.35, 334.41 226.27 C 334.90 216.18, 335.00 210.86, 335.55 201.24 C 336.09 191.63, 336.48 186.72, 337.12 178.21 C 337.77 169.69, 338.10 165.44, 338.79 158.65 C 339.47 151.87, 340.07 148.93, 340.56 144.30 C 341.05 139.67, 341.21 138.02, 341.24 135.48 C 341.28 132.94, 341.03 132.40, 340.73 131.61 C 340.43 130.82, 340.14 130.80, 339.73 131.54 C 339.32 132.28, 339.00 132.80, 338.69 135.31 C 338.39 137.82, 338.55 139.45, 338.21 144.09 C 337.86 148.72, 337.50 151.69, 336.98 158.49 C 336.46 165.29, 336.16 169.56, 335.59 178.10 C 335.02 186.63, 334.65 191.55, 334.14 201.17 C 333.62 210.79, 333.52 216.11, 333.01 226.20 C 332.50 236.28, 332.27 241.76, 331.58 251.58 C 330.90 261.40, 330.44 266.57, 329.57 275.29 C 328.70 284.02, 328.28 288.27, 327.23 295.20 C 326.18 302.12, 325.58 305.41, 324.33 309.93 C 323.07 314.46, 322.34 315.88, 320.97 317.84 C 319.60 319.80, 319.35 319.97, 317.48 319.72 C 315.62 319.46, 314.41 318.90, 311.65 316.57 C 308.90 314.24, 307.07 312.37, 303.71 308.08 C 300.34 303.79, 298.33 301.07, 294.83 295.10 C 291.33 289.13, 289.45 285.44, 286.21 278.23 C 282.97 271.02, 281.39 266.78, 278.63 259.05 C 275.87 251.33, 274.59 247.17, 272.40 239.61 C 270.21 232.05, 269.22 228.01, 267.70 221.26 C 266.17 214.51, 265.71 211.20, 264.77 205.84 C 263.82 200.49, 263.69 198.01, 262.98 194.46 C 262.26 190.92, 261.86 189.88, 261.19 188.13 C 260.51 186.39, 260.23 186.15, 259.60 185.73 C 258.97 185.32, 258.44 185.41, 258.03 186.06" style="stroke: white; fill: white;"/><path d="M 381.48,243.40 C 380.94 242.55, 379.98 241.70, 378.08 241.03 C 376.19 240.36, 374.84 239.74, 372.00 240.04 C 369.16 240.34, 367.02 240.66, 363.89 242.51 C 360.76 244.36, 359.37 245.89, 356.36 249.29 C 353.34 252.69, 351.62 254.78, 348.81 259.51 C 346.00 264.23, 344.44 267.24, 342.29 272.92 C 340.14 278.59, 339.12 282.13, 338.06 287.88 C 336.99 293.63, 336.79 296.71, 336.96 301.66 C 337.14 306.61, 337.38 309.17, 338.95 312.64 C 340.52 316.11, 341.98 317.82, 344.82 319.03 C 347.66 320.24, 349.71 320.09, 353.16 318.69 C 356.61 317.29, 358.48 315.68, 362.08 312.03 C 365.68 308.38, 367.58 305.82, 371.15 300.44 C 374.72 295.07, 376.56 291.55, 379.93 285.15 C 383.30 278.76, 385.24 274.86, 388.01 268.48 C 390.77 262.09, 391.98 258.57, 393.76 253.23 C 395.54 247.89, 396.56 245.05, 396.92 241.78 C 397.29 238.51, 396.65 237.20, 395.58 236.89 C 394.51 236.57, 392.91 237.42, 391.56 240.22 C 390.21 243.03, 389.75 245.77, 388.83 250.91 C 387.92 256.05, 387.38 259.74, 386.97 265.92 C 386.56 272.09, 386.41 275.60, 386.80 281.80 C 387.19 288.01, 387.53 291.50, 388.90 296.94 C 390.28 302.38, 391.14 305.09, 393.68 309.02 C 396.21 312.95, 397.92 314.65, 401.56 316.58 C 405.21 318.50, 407.46 319.11, 411.89 318.67 C 416.33 318.22, 419.07 317.26, 423.72 314.35 C 428.37 311.44, 430.77 308.93, 435.14 304.10 C 439.50 299.27, 441.62 296.17, 445.54 290.21 C 449.46 284.24, 451.41 280.73, 454.73 274.28 C 458.05 267.82, 459.68 264.20, 462.15 257.94 C 464.61 251.68, 465.62 248.33, 467.06 242.96 C 468.49 237.60, 468.94 235.09, 469.34 231.13 C 469.75 227.17, 469.72 225.39, 469.08 223.17 C 468.43 220.95, 467.39 220.16, 466.13 220.04 C 464.87 219.91, 463.59 220.65, 462.77 222.55 C 461.96 224.46, 461.55 226.33, 462.04 229.56 C 462.53 232.79, 463.53 234.85, 465.25 238.70 C 466.97 242.55, 468.15 244.68, 470.63 248.80 C 473.11 252.92, 474.64 255.04, 477.64 259.30 C 480.63 263.57, 482.50 265.80, 485.61 270.13 C 488.72 274.45, 490.64 276.77, 493.19 280.94 C 495.75 285.10, 497.08 287.20, 498.39 290.95 C 499.70 294.70, 500.01 296.27, 499.73 299.68 C 499.45 303.10, 498.84 304.93, 496.98 308.03 C 495.13 311.13, 493.61 312.72, 490.45 315.18 C 487.30 317.63, 485.03 318.75, 481.20 320.32 C 477.36 321.88, 474.88 322.50, 471.29 323.00 C 467.69 323.50, 465.81 323.20, 463.23 322.83 C 460.66 322.46, 459.85 321.77, 458.43 321.14 C 457.01 320.51, 456.71 320.33, 456.13 319.68 C 455.54 319.03, 455.91 318.21, 455.50 317.89 C 455.08 317.56, 454.37 317.43, 454.06 318.04 C 453.75 318.66, 453.42 319.76, 453.95 320.98 C 454.47 322.20, 454.95 322.95, 456.69 324.15 C 458.42 325.34, 459.58 326.48, 462.61 326.96 C 465.64 327.43, 467.88 327.23, 471.85 326.51 C 475.83 325.79, 478.35 325.12, 482.47 323.36 C 486.59 321.60, 489.01 320.47, 492.46 317.73 C 495.91 314.98, 497.67 313.21, 499.73 309.64 C 501.79 306.08, 502.50 303.84, 502.77 299.91 C 503.05 295.98, 502.56 294.08, 501.11 289.99 C 499.66 285.91, 498.19 283.78, 495.53 279.50 C 492.86 275.21, 490.90 272.92, 487.78 268.57 C 484.66 264.22, 482.80 262.00, 479.92 257.73 C 477.04 253.47, 475.56 251.34, 473.36 247.24 C 471.16 243.15, 470.18 240.96, 468.92 237.25 C 467.65 233.54, 467.57 231.53, 467.04 228.71 C 466.50 225.89, 466.47 224.66, 466.25 223.16 C 466.02 221.65, 465.95 221.07, 465.92 221.18 C 465.89 221.29, 465.98 221.76, 466.08 223.70 C 466.18 225.64, 466.66 227.14, 466.41 230.88 C 466.15 234.62, 466.04 237.13, 464.80 242.40 C 463.57 247.66, 462.61 251.01, 460.24 257.20 C 457.88 263.40, 456.26 267.00, 452.98 273.37 C 449.70 279.75, 447.73 283.23, 443.82 289.07 C 439.92 294.91, 437.74 297.94, 433.45 302.55 C 429.16 307.17, 426.73 309.49, 422.37 312.16 C 418.00 314.83, 415.52 315.52, 411.62 315.91 C 407.72 316.30, 406.01 315.79, 402.86 314.13 C 399.71 312.46, 398.19 311.16, 395.86 307.60 C 393.54 304.04, 392.57 301.53, 391.24 296.34 C 389.90 291.16, 389.50 287.71, 389.19 281.66 C 388.88 275.62, 389.10 272.16, 389.68 266.13 C 390.26 260.11, 391.02 256.48, 392.07 251.54 C 393.12 246.60, 394.26 244.25, 394.93 241.43 C 395.60 238.61, 395.60 237.47, 395.41 237.44 C 395.22 237.40, 394.76 238.23, 393.97 241.24 C 393.18 244.25, 393.03 247.22, 391.45 252.50 C 389.87 257.78, 388.75 261.32, 386.07 267.65 C 383.38 273.98, 381.42 277.86, 378.04 284.15 C 374.65 290.43, 372.74 293.91, 369.14 299.07 C 365.54 304.24, 363.50 306.66, 360.05 309.97 C 356.60 313.29, 354.68 314.43, 351.89 315.66 C 349.09 316.89, 348.08 316.97, 346.05 316.11 C 344.02 315.26, 343.02 314.31, 341.74 311.39 C 340.45 308.48, 339.89 306.15, 339.64 301.54 C 339.39 296.93, 339.50 293.87, 340.50 288.33 C 341.50 282.78, 342.51 279.30, 344.64 273.82 C 346.78 268.35, 348.35 265.41, 351.18 260.96 C 354.00 256.51, 355.84 254.51, 358.78 251.57 C 361.73 248.64, 363.16 247.59, 365.91 246.29 C 368.66 244.99, 370.25 245.31, 372.52 245.08 C 374.79 244.85, 375.60 245.09, 377.25 245.13 C 378.90 245.18, 379.93 245.66, 380.78 245.32 C 381.62 244.97, 382.02 244.26, 381.48 243.40" style="stroke: white; fill: white;"/><path d="M 531.57,152.91 C 530.93 153.63, 530.45 154.44, 530.16 156.70 C 529.86 158.97, 530.01 160.32, 530.11 164.23 C 530.20 168.14, 530.53 170.71, 530.63 176.26 C 530.73 181.81, 530.70 185.20, 530.59 191.97 C 530.49 198.75, 530.40 202.46, 530.12 210.15 C 529.83 217.85, 529.65 222.18, 529.16 230.45 C 528.68 238.71, 528.25 243.36, 527.68 251.48 C 527.12 259.59, 526.80 263.77, 526.32 271.01 C 525.84 278.25, 525.56 281.95, 525.29 287.67 C 525.02 293.40, 524.58 295.97, 524.96 299.63 C 525.35 303.29, 525.78 304.63, 527.21 305.98 C 528.63 307.34, 529.96 307.52, 532.08 306.39 C 534.20 305.26, 535.41 303.61, 537.82 300.33 C 540.24 297.06, 541.45 294.45, 544.17 290.03 C 546.88 285.61, 548.38 282.85, 551.41 278.22 C 554.44 273.60, 556.20 271.03, 559.31 266.90 C 562.41 262.78, 564.13 260.57, 566.94 257.59 C 569.75 254.62, 571.28 253.51, 573.35 252.03 C 575.42 250.55, 576.22 250.04, 577.29 250.20 C 578.35 250.35, 578.23 250.73, 578.67 252.80 C 579.10 254.88, 579.25 256.76, 579.45 260.58 C 579.65 264.40, 579.72 266.99, 579.65 271.88 C 579.59 276.77, 579.23 279.82, 579.13 285.02 C 579.03 290.23, 578.83 293.28, 579.15 297.90 C 579.48 302.52, 579.53 304.73, 580.76 308.13 C 581.99 311.52, 582.94 313.23, 585.32 314.90 C 587.69 316.56, 589.51 316.99, 592.62 316.46 C 595.74 315.94, 597.52 314.78, 600.89 312.29 C 604.26 309.79, 606.06 307.79, 609.46 304.01 C 612.87 300.22, 614.75 297.82, 617.90 293.36 C 621.05 288.89, 622.56 286.06, 625.21 281.69 C 627.86 277.32, 629.36 274.93, 631.15 271.52 C 632.95 268.11, 633.77 266.33, 634.18 264.62 C 634.59 262.91, 633.88 262.39, 633.21 262.98 C 632.54 263.57, 631.49 264.78, 630.84 267.58 C 630.20 270.37, 630.14 272.64, 629.99 276.96 C 629.84 281.27, 629.76 284.40, 630.09 289.16 C 630.42 293.93, 630.61 296.47, 631.64 300.76 C 632.66 305.04, 633.37 307.44, 635.23 310.59 C 637.10 313.73, 638.54 314.82, 640.96 316.47 C 643.39 318.13, 645.17 318.57, 647.35 318.86 C 649.53 319.14, 650.96 318.42, 651.85 317.90 C 652.75 317.38, 652.55 316.73, 651.81 316.26 C 651.06 315.79, 649.84 316.15, 648.13 315.53 C 646.42 314.90, 645.22 314.50, 643.24 313.14 C 641.27 311.78, 639.92 311.37, 638.24 308.74 C 636.56 306.11, 635.78 303.94, 634.85 299.99 C 633.91 296.04, 633.69 293.55, 633.56 289.00 C 633.44 284.44, 633.83 281.39, 634.22 277.23 C 634.61 273.06, 635.45 271.02, 635.51 268.16 C 635.57 265.30, 635.26 263.89, 634.52 262.92 C 633.79 261.96, 633.13 261.95, 631.84 263.34 C 630.56 264.74, 629.91 266.51, 628.09 269.89 C 626.27 273.27, 625.24 275.87, 622.75 280.24 C 620.25 284.61, 618.72 287.40, 615.61 291.73 C 612.50 296.06, 610.54 298.36, 607.18 301.90 C 603.82 305.44, 601.87 307.25, 598.81 309.42 C 595.75 311.60, 594.20 312.19, 591.88 312.75 C 589.55 313.32, 588.78 313.41, 587.19 312.26 C 585.60 311.11, 584.93 309.92, 583.93 307.00 C 582.93 304.08, 582.55 302.05, 582.18 297.67 C 581.82 293.29, 581.95 290.23, 582.10 285.10 C 582.26 279.96, 582.71 276.92, 582.95 271.98 C 583.20 267.05, 583.47 264.48, 583.32 260.41 C 583.17 256.34, 583.30 254.16, 582.20 251.63 C 581.10 249.10, 579.98 248.30, 577.81 247.76 C 575.64 247.22, 573.97 247.38, 571.35 248.94 C 568.72 250.49, 567.52 252.28, 564.68 255.55 C 561.84 258.82, 560.25 261.06, 557.13 265.28 C 554.02 269.51, 552.25 272.09, 549.11 276.68 C 545.97 281.28, 544.31 283.99, 541.43 288.27 C 538.55 292.55, 536.94 294.94, 534.71 298.08 C 532.49 301.23, 531.51 302.66, 530.31 303.99 C 529.10 305.33, 529.17 305.67, 528.68 304.74 C 528.18 303.82, 528.07 302.78, 527.83 299.38 C 527.60 295.98, 527.42 293.39, 527.49 287.74 C 527.55 282.08, 527.78 278.35, 528.17 271.12 C 528.55 263.89, 528.86 259.71, 529.40 251.59 C 529.95 243.48, 530.38 238.83, 530.90 230.55 C 531.42 222.28, 531.62 217.94, 532.01 210.24 C 532.39 202.53, 532.53 198.83, 532.83 192.04 C 533.13 185.25, 533.29 181.86, 533.51 176.30 C 533.74 170.74, 533.85 168.13, 533.96 164.24 C 534.07 160.35, 534.19 159.09, 534.07 156.85 C 533.95 154.62, 533.85 153.86, 533.35 153.07 C 532.85 152.28, 532.21 152.18, 531.57 152.91" style="stroke: white; fill: white;"/><path d="M 643.05,208.82 C 643.50 208.19, 643.41 207.46, 643.10 206.98 C 642.79 206.49, 642.18 206.37, 641.49 206.41 C 640.80 206.45, 640.14 206.65, 639.66 207.18 C 639.18 207.71, 638.84 208.46, 639.08 209.05 C 639.32 209.63, 640.06 210.16, 640.86 210.12 C 641.65 210.07, 642.60 209.45, 643.05 208.82" style="stroke: white; fill: white;"/><path d="M 682.43,256.69 C 682.04 258.48, 682.32 260.98, 682.45 265.55 C 682.58 270.12, 682.99 273.08, 683.10 279.54 C 683.20 286.01, 683.07 290.06, 682.99 297.86 C 682.91 305.66, 682.87 310.03, 682.69 318.55 C 682.51 327.08, 682.43 331.75, 682.08 340.49 C 681.74 349.23, 681.27 354.11, 680.97 362.25 C 680.67 370.40, 680.70 374.73, 680.59 381.22 C 680.47 387.72, 680.28 390.76, 680.39 394.72 C 680.51 398.68, 680.67 400.18, 681.15 401.02 C 681.62 401.86, 682.58 401.35, 682.76 398.91 C 682.93 396.48, 682.37 394.07, 682.03 388.83 C 681.69 383.58, 681.36 379.96, 681.04 372.68 C 680.72 365.40, 680.45 361.04, 680.42 352.44 C 680.40 343.84, 680.40 338.94, 680.92 329.69 C 681.44 320.44, 681.85 315.46, 683.04 306.18 C 684.23 296.91, 684.85 292.05, 686.87 283.31 C 688.88 274.57, 690.13 270.12, 693.11 262.48 C 696.10 254.84, 697.94 251.09, 701.81 245.11 C 705.68 239.14, 708.06 236.56, 712.47 232.59 C 716.89 228.62, 719.34 226.99, 723.88 225.26 C 728.42 223.53, 731.00 223.55, 735.18 223.93 C 739.35 224.32, 741.47 224.98, 744.74 227.18 C 748.02 229.39, 749.48 231.03, 751.54 234.97 C 753.60 238.90, 754.55 241.65, 755.04 246.86 C 755.54 252.08, 755.42 255.26, 754.01 261.05 C 752.60 266.83, 751.34 270.00, 747.98 275.79 C 744.62 281.58, 742.14 284.87, 737.23 289.99 C 732.31 295.12, 729.11 297.74, 723.41 301.41 C 717.72 305.09, 714.29 306.54, 708.75 308.38 C 703.22 310.22, 700.13 310.60, 695.73 310.62 C 691.33 310.64, 689.38 309.98, 686.75 308.48 C 684.12 306.98, 683.32 305.73, 682.57 303.12 C 681.83 300.51, 681.85 298.71, 683.03 295.43 C 684.22 292.15, 685.51 290.03, 688.48 286.71 C 691.45 283.38, 693.54 281.53, 697.90 278.80 C 702.27 276.06, 705.02 274.84, 710.31 273.05 C 715.59 271.26, 718.65 270.59, 724.33 269.84 C 730.01 269.08, 733.00 268.98, 738.70 269.27 C 744.40 269.55, 747.47 270.18, 752.84 271.26 C 758.20 272.35, 760.84 273.16, 765.53 274.69 C 770.22 276.22, 772.43 277.46, 776.31 278.93 C 780.18 280.40, 782.01 281.17, 784.91 282.04 C 787.80 282.91, 788.87 283.08, 790.76 283.29 C 792.64 283.50, 793.57 283.38, 794.32 283.08 C 795.08 282.78, 795.11 282.32, 794.54 281.79 C 793.97 281.27, 793.16 281.15, 791.46 280.47 C 789.76 279.78, 788.86 279.27, 786.03 278.39 C 783.19 277.50, 781.25 277.29, 777.30 276.06 C 773.36 274.82, 771.11 273.62, 766.31 272.19 C 761.51 270.76, 758.80 269.95, 753.30 268.90 C 747.80 267.85, 744.67 267.22, 738.82 266.94 C 732.96 266.66, 729.89 266.76, 724.03 267.51 C 718.17 268.26, 715.04 268.91, 709.53 270.70 C 704.02 272.50, 701.15 273.69, 696.49 276.48 C 691.83 279.27, 689.54 281.09, 686.23 284.66 C 682.92 288.23, 681.28 290.45, 679.93 294.34 C 678.58 298.22, 678.40 300.73, 679.48 304.06 C 680.56 307.40, 682.06 309.21, 685.32 311.02 C 688.58 312.83, 690.94 313.24, 695.77 313.12 C 700.59 313.00, 703.70 312.43, 709.45 310.43 C 715.20 308.42, 718.66 306.91, 724.50 303.09 C 730.34 299.28, 733.60 296.61, 738.65 291.36 C 743.71 286.11, 746.25 282.79, 749.76 276.84 C 753.28 270.88, 754.65 267.64, 756.21 261.60 C 757.77 255.56, 758.01 252.22, 757.56 246.64 C 757.10 241.07, 756.19 238.07, 753.93 233.72 C 751.67 229.38, 749.97 227.39, 746.26 224.92 C 742.55 222.45, 740.03 221.73, 735.39 221.37 C 730.75 221.02, 727.90 221.20, 723.05 223.15 C 718.20 225.10, 715.69 226.93, 711.15 231.14 C 706.61 235.34, 704.25 238.02, 700.35 244.18 C 696.45 250.33, 694.63 254.15, 691.65 261.91 C 688.66 269.67, 687.43 274.16, 685.42 282.98 C 683.40 291.79, 682.78 296.67, 681.57 305.99 C 680.36 315.32, 679.95 320.31, 679.37 329.59 C 678.78 338.88, 678.78 343.80, 678.65 352.43 C 678.52 361.06, 678.65 365.43, 678.73 372.75 C 678.81 380.06, 678.83 383.70, 679.04 388.98 C 679.25 394.27, 679.16 396.76, 679.78 399.19 C 680.41 401.61, 681.50 402.01, 682.15 401.12 C 682.80 400.22, 682.94 398.69, 683.03 394.71 C 683.12 390.73, 682.66 387.71, 682.59 381.23 C 682.52 374.75, 682.45 370.44, 682.68 362.31 C 682.90 354.17, 683.36 349.29, 683.70 340.55 C 684.05 331.81, 684.14 327.13, 684.40 318.60 C 684.65 310.07, 684.75 305.71, 684.96 297.90 C 685.17 290.08, 685.40 286.02, 685.43 279.53 C 685.45 273.04, 685.29 270.04, 685.09 265.45 C 684.88 260.87, 684.93 258.36, 684.40 256.61 C 683.87 254.86, 682.82 254.90, 682.43 256.69" style="stroke: white; fill: white;"/><path d="M 829.79,248.57 C 829.61 247.69, 829.12 246.81, 827.76 245.79 C 826.40 244.76, 825.33 244.03, 822.99 243.43 C 820.65 242.84, 819.05 242.37, 816.06 242.79 C 813.07 243.21, 811.24 243.80, 808.05 245.52 C 804.86 247.24, 803.22 248.54, 800.11 251.39 C 796.99 254.24, 795.18 255.93, 792.48 259.76 C 789.78 263.59, 788.47 266.07, 786.60 270.54 C 784.74 275.02, 783.87 277.58, 783.17 282.13 C 782.46 286.67, 782.24 289.28, 783.08 293.27 C 783.91 297.25, 784.83 299.42, 787.35 302.04 C 789.88 304.65, 791.87 305.66, 795.68 306.33 C 799.49 307.01, 801.90 306.80, 806.41 305.40 C 810.91 304.01, 813.54 302.57, 818.20 299.36 C 822.85 296.15, 825.36 293.81, 829.67 289.36 C 833.99 284.91, 836.15 282.03, 839.78 277.12 C 843.42 272.21, 845.38 269.21, 847.86 264.81 C 850.33 260.40, 851.53 258.06, 852.15 255.09 C 852.77 252.13, 852.07 250.80, 850.96 249.99 C 849.86 249.19, 848.29 249.31, 846.62 251.06 C 844.95 252.81, 843.84 254.82, 842.60 258.75 C 841.35 262.68, 840.77 265.63, 840.38 270.71 C 840.00 275.80, 839.85 278.98, 840.67 284.16 C 841.48 289.33, 842.12 292.11, 844.45 296.60 C 846.77 301.09, 848.48 303.39, 852.30 306.59 C 856.12 309.79, 858.40 311.27, 863.53 312.60 C 868.65 313.94, 871.85 314.13, 877.92 313.27 C 884.00 312.42, 887.45 311.24, 893.89 308.32 C 900.34 305.41, 903.93 303.23, 910.17 298.68 C 916.40 294.13, 919.77 291.17, 925.07 285.59 C 930.38 280.00, 932.97 276.61, 936.68 270.77 C 940.40 264.93, 941.96 261.70, 943.65 256.38 C 945.34 251.06, 945.75 248.33, 945.13 244.19 C 944.51 240.04, 943.38 237.97, 940.54 235.65 C 937.70 233.33, 935.25 232.65, 930.93 232.58 C 926.62 232.51, 923.86 233.16, 918.96 235.29 C 914.06 237.42, 911.03 239.32, 906.44 243.24 C 901.85 247.16, 899.12 249.76, 896.02 254.89 C 892.91 260.02, 891.52 263.08, 890.92 268.89 C 890.31 274.70, 890.58 278.17, 893.00 283.95 C 895.43 289.74, 897.53 292.82, 903.04 297.84 C 908.55 302.85, 912.35 305.13, 920.54 309.04 C 928.73 312.95, 933.59 314.61, 943.98 317.39 C 954.37 320.17, 961.63 321.06, 972.49 322.92 C 983.36 324.78, 989.59 325.56, 998.32 326.68 C 1007.06 327.80, 1012.56 328.41, 1016.15 328.50 C 1019.75 328.60, 1019.82 327.79, 1016.29 327.15 C 1012.76 326.52, 1007.21 326.46, 998.50 325.34 C 989.78 324.22, 983.56 323.40, 972.73 321.54 C 961.90 319.68, 954.65 318.81, 944.35 316.03 C 934.05 313.24, 929.24 311.54, 921.22 307.63 C 913.20 303.73, 909.53 301.39, 904.27 296.50 C 899.00 291.61, 897.11 288.65, 894.87 283.18 C 892.64 277.71, 892.46 274.54, 893.09 269.13 C 893.72 263.72, 895.02 260.91, 898.02 256.12 C 901.01 251.33, 903.67 248.84, 908.08 245.19 C 912.49 241.53, 915.49 239.78, 920.06 237.86 C 924.62 235.93, 927.17 235.53, 930.90 235.54 C 934.64 235.56, 936.40 236.11, 938.73 237.92 C 941.07 239.72, 942.02 241.02, 942.58 244.58 C 943.14 248.14, 943.04 250.69, 941.53 255.73 C 940.02 260.76, 938.59 264.01, 935.03 269.73 C 931.47 275.45, 928.92 278.83, 923.73 284.31 C 918.54 289.79, 915.19 292.72, 909.06 297.15 C 902.92 301.58, 899.35 303.68, 893.06 306.46 C 886.77 309.24, 883.40 310.29, 877.62 311.04 C 871.84 311.80, 868.89 311.51, 864.16 310.23 C 859.43 308.95, 857.43 307.59, 853.97 304.62 C 850.50 301.65, 848.92 299.56, 846.83 295.38 C 844.73 291.21, 844.11 288.62, 843.50 283.76 C 842.89 278.89, 843.17 275.81, 843.77 271.05 C 844.37 266.30, 845.37 263.60, 846.51 259.98 C 847.64 256.36, 848.72 254.81, 849.45 252.95 C 850.19 251.10, 850.32 250.47, 850.20 250.71 C 850.07 250.95, 849.78 251.59, 848.83 254.14 C 847.87 256.70, 847.62 259.19, 845.42 263.50 C 843.22 267.81, 841.33 270.86, 837.83 275.69 C 834.34 280.52, 832.16 283.37, 827.94 287.66 C 823.71 291.95, 821.18 294.17, 816.70 297.15 C 812.22 300.12, 809.63 301.33, 805.54 302.53 C 801.45 303.72, 799.41 303.68, 796.25 303.12 C 793.10 302.56, 791.77 301.83, 789.76 299.73 C 787.75 297.62, 786.93 296.03, 786.22 292.61 C 785.51 289.18, 785.56 286.77, 786.19 282.59 C 786.83 278.42, 787.62 275.91, 789.40 271.72 C 791.17 267.53, 792.46 265.16, 795.08 261.64 C 797.69 258.12, 799.50 256.56, 802.47 254.10 C 805.44 251.64, 807.09 250.58, 809.92 249.35 C 812.75 248.11, 814.23 248.11, 816.62 247.94 C 819.01 247.77, 820.01 248.16, 821.86 248.50 C 823.70 248.84, 824.47 249.29, 825.84 249.63 C 827.20 249.97, 827.89 250.40, 828.68 250.19 C 829.47 249.98, 829.97 249.45, 829.79 248.57" style="stroke: white; fill: white;"/></svg>